<svg width="136" height="14" viewBox="0 0 136 14" fill="none" xmlns="http://www.w3.org/2000/svg">
<path d="M3.41051 6.18182C3.41051 5.57197 3.56013 5.01515 3.85938 4.51136C4.15862 4.00758 4.55824 3.60795 5.05824 3.3125C5.56203 3.01326 6.11884 2.86364 6.72869 2.86364C7.259 2.86364 7.74953 2.97917 8.20028 3.21023C8.65104 3.4375 9.02415 3.75 9.3196 4.14773C9.61506 4.54545 9.79498 4.99242 9.85938 5.48864H8.3821C8.31392 5.13636 8.12074 4.84848 7.80256 4.625C7.48816 4.39773 7.13021 4.28409 6.72869 4.28409C6.38021 4.28409 6.06203 4.36932 5.77415 4.53977C5.48627 4.71023 5.2571 4.93939 5.08665 5.22727C4.91619 5.51136 4.83097 5.82955 4.83097 6.18182C4.83097 6.5303 4.91619 6.84848 5.08665 7.13636C5.2571 7.42424 5.48627 7.65341 5.77415 7.82386C6.06203 7.99432 6.38021 8.07955 6.72869 8.07955C7.13021 8.07955 7.47301 7.9678 7.7571 7.74432C8.04119 7.51705 8.21922 7.22727 8.29119 6.875H9.76847C9.70407 7.37121 9.53172 7.81818 9.25142 8.21591C8.97112 8.61364 8.61316 8.92803 8.17756 9.15909C7.74195 9.38636 7.259 9.5 6.72869 9.5C6.11884 9.5 5.56203 9.35227 5.05824 9.05682C4.55824 8.75758 4.15862 8.35606 3.85938 7.85227C3.56013 7.34848 3.41051 6.79167 3.41051 6.18182ZM6.67756 12.1818C5.8518 12.1818 5.07528 12.0265 4.34801 11.7159C3.62453 11.4053 2.98627 10.9754 2.43324 10.4261C1.884 9.87311 1.45218 9.23485 1.13778 8.51136C0.827178 7.78788 0.673769 7.01136 0.677557 6.18182C0.681345 5.35227 0.838542 4.57576 1.14915 3.85227C1.46354 3.12879 1.89536 2.49242 2.4446 1.94318C2.99384 1.39015 3.63021 0.958333 4.35369 0.647727C5.07718 0.337121 5.8518 0.181818 6.67756 0.181818C7.5071 0.181818 8.28362 0.337121 9.0071 0.647727C9.73438 0.958333 10.3707 1.39015 10.9162 1.94318C11.4654 2.49242 11.8954 3.12879 12.206 3.85227C12.5166 4.57576 12.6738 5.35227 12.6776 6.18182C12.6813 7.01136 12.5279 7.78788 12.2173 8.51136C11.9067 9.23485 11.4768 9.87311 10.9276 10.4261C10.3783 10.9754 9.74006 11.4053 9.01278 11.7159C8.28551 12.0265 7.5071 12.1818 6.67756 12.1818ZM6.67756 10.6705C7.29877 10.6705 7.8821 10.5549 8.42756 10.3239C8.97301 10.0928 9.45028 9.77273 9.85938 9.36364C10.2723 8.95076 10.5942 8.47348 10.8253 7.93182C11.0563 7.38636 11.17 6.80492 11.1662 6.1875C11.1662 5.56629 11.0488 4.98295 10.8139 4.4375C10.5829 3.89205 10.2609 3.41477 9.84801 3.00568C9.43892 2.5928 8.96354 2.27083 8.42188 2.03977C7.88021 1.80871 7.29877 1.69318 6.67756 1.69318C6.06013 1.69318 5.48059 1.80871 4.93892 2.03977C4.39725 2.27083 3.91998 2.5928 3.5071 3.00568C3.09801 3.41856 2.77604 3.89773 2.54119 4.44318C2.30634 4.98485 2.18892 5.56629 2.18892 6.1875C2.18513 6.80114 2.29877 7.38068 2.52983 7.92614C2.76468 8.4678 3.08665 8.94508 3.49574 9.35795C3.90862 9.76705 4.38589 10.089 4.92756 10.3239C5.47301 10.5549 6.05634 10.6705 6.67756 10.6705ZM19.3537 12V10.7273L23.2912 6.64773C23.7116 6.20455 24.0582 5.81629 24.331 5.48295C24.6075 5.14583 24.8139 4.82576 24.9503 4.52273C25.0866 4.2197 25.1548 3.89773 25.1548 3.55682C25.1548 3.17045 25.0639 2.83712 24.8821 2.55682C24.7003 2.27273 24.4522 2.05492 24.1378 1.90341C23.8234 1.74811 23.4692 1.67045 23.0753 1.67045C22.6586 1.67045 22.295 1.75568 21.9844 1.92614C21.6738 2.09659 21.4351 2.33712 21.2685 2.64773C21.1018 2.95833 21.0185 3.32197 21.0185 3.73864H19.3423C19.3423 3.0303 19.5052 2.41098 19.831 1.88068C20.1567 1.35038 20.6037 0.939394 21.1719 0.647727C21.7401 0.352272 22.3859 0.204545 23.1094 0.204545C23.8404 0.204545 24.4844 0.350378 25.0412 0.642045C25.6018 0.929924 26.0393 1.32386 26.3537 1.82386C26.6681 2.32008 26.8253 2.88068 26.8253 3.50568C26.8253 3.9375 26.7438 4.35985 26.581 4.77273C26.4219 5.18561 26.1435 5.64583 25.7457 6.15341C25.348 6.6572 24.795 7.26894 24.0866 7.98864L21.7741 10.4091V10.4943H27.0128V12H19.3537ZM33.2173 12.1932C32.3196 12.1894 31.5526 11.9527 30.9162 11.483C30.2798 11.0133 29.7931 10.3295 29.456 9.43182C29.1188 8.53409 28.9503 7.45265 28.9503 6.1875C28.9503 4.92614 29.1188 3.84848 29.456 2.95455C29.7969 2.06061 30.2855 1.37879 30.9219 0.909091C31.562 0.439394 32.3272 0.204545 33.2173 0.204545C34.1075 0.204545 34.8707 0.441287 35.5071 0.914772C36.1435 1.38447 36.6302 2.06629 36.9673 2.96023C37.3082 3.85038 37.4787 4.92614 37.4787 6.1875C37.4787 7.45644 37.3101 8.53977 36.973 9.4375C36.6359 10.3314 36.1491 11.0152 35.5128 11.4886C34.8764 11.9583 34.1113 12.1932 33.2173 12.1932ZM33.2173 10.6761C34.0052 10.6761 34.6207 10.2917 35.0639 9.52273C35.5109 8.75379 35.7344 7.64205 35.7344 6.1875C35.7344 5.22159 35.6321 4.4053 35.4276 3.73864C35.2268 3.06818 34.937 2.56061 34.5582 2.21591C34.1832 1.86742 33.7363 1.69318 33.2173 1.69318C32.4332 1.69318 31.8177 2.07954 31.3707 2.85227C30.9238 3.625 30.6984 4.73674 30.6946 6.1875C30.6946 7.1572 30.795 7.97727 30.9957 8.64773C31.2003 9.31439 31.4901 9.82008 31.8651 10.1648C32.2401 10.5057 32.6908 10.6761 33.2173 10.6761ZM39.4943 12V10.7273L43.4318 6.64773C43.8523 6.20455 44.1989 5.81629 44.4716 5.48295C44.7481 5.14583 44.9545 4.82576 45.0909 4.52273C45.2273 4.2197 45.2955 3.89773 45.2955 3.55682C45.2955 3.17045 45.2045 2.83712 45.0227 2.55682C44.8409 2.27273 44.5928 2.05492 44.2784 1.90341C43.964 1.74811 43.6098 1.67045 43.2159 1.67045C42.7992 1.67045 42.4356 1.75568 42.125 1.92614C41.8144 2.09659 41.5758 2.33712 41.4091 2.64773C41.2424 2.95833 41.1591 3.32197 41.1591 3.73864H39.483C39.483 3.0303 39.6458 2.41098 39.9716 1.88068C40.2973 1.35038 40.7443 0.939394 41.3125 0.647727C41.8807 0.352272 42.5265 0.204545 43.25 0.204545C43.9811 0.204545 44.625 0.350378 45.1818 0.642045C45.7424 0.929924 46.1799 1.32386 46.4943 1.82386C46.8087 2.32008 46.9659 2.88068 46.9659 3.50568C46.9659 3.9375 46.8845 4.35985 46.7216 4.77273C46.5625 5.18561 46.2841 5.64583 45.8864 6.15341C45.4886 6.6572 44.9356 7.26894 44.2273 7.98864L41.9148 10.4091V10.4943H47.1534V12H39.4943ZM53.358 12.1591C52.5777 12.1591 51.8807 12.0246 51.267 11.7557C50.6572 11.4867 50.1742 11.1136 49.8182 10.6364C49.4659 10.1553 49.2765 9.59848 49.25 8.96591H51.0341C51.0568 9.31061 51.1723 9.60985 51.3807 9.86364C51.5928 10.1136 51.8693 10.3068 52.2102 10.4432C52.5511 10.5795 52.9299 10.6477 53.3466 10.6477C53.8049 10.6477 54.2102 10.5682 54.5625 10.4091C54.9186 10.25 55.197 10.0284 55.3977 9.74432C55.5985 9.45644 55.6989 9.125 55.6989 8.75C55.6989 8.35985 55.5985 8.01705 55.3977 7.72159C55.2008 7.42235 54.911 7.1875 54.5284 7.01705C54.1496 6.84659 53.6913 6.76136 53.1534 6.76136H52.1705V5.32955H53.1534C53.5852 5.32955 53.964 5.25189 54.2898 5.09659C54.6193 4.94129 54.8769 4.72538 55.0625 4.44886C55.2481 4.16856 55.3409 3.84091 55.3409 3.46591C55.3409 3.10606 55.2595 2.79356 55.0966 2.52841C54.9375 2.25947 54.7102 2.04924 54.4148 1.89773C54.1231 1.74621 53.7784 1.67045 53.3807 1.67045C53.0019 1.67045 52.6477 1.74053 52.3182 1.88068C51.9924 2.01705 51.7273 2.21402 51.5227 2.47159C51.3182 2.72538 51.2083 3.0303 51.1932 3.38636H49.4943C49.5133 2.75758 49.6989 2.20455 50.0511 1.72727C50.4072 1.25 50.8769 0.876893 51.4602 0.607954C52.0436 0.339015 52.6913 0.204545 53.4034 0.204545C54.1496 0.204545 54.7936 0.350378 55.3352 0.642045C55.8807 0.929924 56.3011 1.31439 56.5966 1.79545C56.8958 2.27651 57.0436 2.80303 57.0398 3.375C57.0436 4.02652 56.8617 4.57955 56.4943 5.03409C56.1307 5.48864 55.6458 5.79356 55.0398 5.94886V6.03977C55.8125 6.1572 56.411 6.46402 56.8352 6.96023C57.2633 7.45644 57.4754 8.07197 57.4716 8.80682C57.4754 9.44697 57.2973 10.0208 56.9375 10.5284C56.5814 11.036 56.0947 11.4356 55.4773 11.7273C54.8598 12.0152 54.1534 12.1591 53.358 12.1591ZM64.9957 12H63.1321L67.3196 0.363636H69.348L73.5355 12H71.6719L68.3821 2.47727H68.2912L64.9957 12ZM65.3082 7.44318H71.3537V8.92045H65.3082V7.44318ZM82.6989 0.363636H84.4602V8.01705C84.4602 8.83144 84.2689 9.55303 83.8864 10.1818C83.5038 10.8068 82.9659 11.2992 82.2727 11.6591C81.5795 12.0152 80.767 12.1932 79.8352 12.1932C78.9072 12.1932 78.0966 12.0152 77.4034 11.6591C76.7102 11.2992 76.1723 10.8068 75.7898 10.1818C75.4072 9.55303 75.2159 8.83144 75.2159 8.01705V0.363636H76.9716V7.875C76.9716 8.40152 77.0871 8.86932 77.3182 9.27841C77.553 9.6875 77.8845 10.0095 78.3125 10.2443C78.7405 10.4754 79.2481 10.5909 79.8352 10.5909C80.4261 10.5909 80.9356 10.4754 81.3636 10.2443C81.7955 10.0095 82.125 9.6875 82.3523 9.27841C82.5833 8.86932 82.6989 8.40152 82.6989 7.875V0.363636ZM92.2969 12V13.4432H84.9048V12H92.2969ZM92.0795 1.875V0.363636H101.085V1.875H97.4545V12H95.7045V1.875H92.0795ZM103.075 12V0.363636H110.371V1.875H104.831V5.42045H109.99V6.92614H104.831V10.4886H110.439V12H103.075ZM113.699 12H111.835L116.023 0.363636H118.051L122.239 12H120.375L117.085 2.47727H116.994L113.699 12ZM114.011 7.44318H120.057V8.92045H114.011V7.44318ZM123.919 0.363636H126.05L129.754 9.40909H129.891L133.595 0.363636H135.726V12H134.055V3.57955H133.947L130.516 11.983H129.129L125.697 3.57386H125.589V12H123.919V0.363636Z" fill="#1A1A1A" fill-opacity="0.5"/>
</svg>
