<svg width="56" height="55" viewBox="0 0 56 55" fill="none" xmlns="http://www.w3.org/2000/svg">
<g filter="url(#filter0_d_1_20697)">
<rect x="2.5" y="0.5" width="51" height="51" rx="7.5" stroke="#FEC8C8"/>
<g clip-path="url(#clip0_1_20697)">
<path d="M28.0001 27.3333C28.7365 27.3333 29.3334 26.7363 29.3334 26C29.3334 25.2636 28.7365 24.6666 28.0001 24.6666C27.2637 24.6666 26.6667 25.2636 26.6667 26C26.6667 26.7363 27.2637 27.3333 28.0001 27.3333Z" fill="#FD6B6B"/>
<path d="M28.0001 22C28.7365 22 29.3334 21.403 29.3334 20.6666C29.3334 19.9303 28.7365 19.3333 28.0001 19.3333C27.2637 19.3333 26.6667 19.9303 26.6667 20.6666C26.6667 21.403 27.2637 22 28.0001 22Z" fill="#FD6B6B"/>
<path d="M28.0001 16.6667C28.7365 16.6667 29.3334 16.0697 29.3334 15.3333C29.3334 14.597 28.7365 14 28.0001 14C27.2637 14 26.6667 14.597 26.6667 15.3333C26.6667 16.0697 27.2637 16.6667 28.0001 16.6667Z" fill="#FD6B6B"/>
<path d="M28.0001 38C28.7365 38 29.3334 37.403 29.3334 36.6666C29.3334 35.9303 28.7365 35.3333 28.0001 35.3333C27.2637 35.3333 26.6667 35.9303 26.6667 36.6666C26.6667 37.403 27.2637 38 28.0001 38Z" fill="#FD6B6B"/>
<path d="M28.0001 32.6667C28.7365 32.6667 29.3334 32.0697 29.3334 31.3333C29.3334 30.597 28.7365 30 28.0001 30C27.2637 30 26.6667 30.597 26.6667 31.3333C26.6667 32.0697 27.2637 32.6667 28.0001 32.6667Z" fill="#FD6B6B"/>
<path d="M33.3333 27.3333C34.0697 27.3333 34.6667 26.7363 34.6667 26C34.6667 25.2636 34.0697 24.6666 33.3333 24.6666C32.597 24.6666 32 25.2636 32 26C32 26.7363 32.597 27.3333 33.3333 27.3333Z" fill="#FD6B6B"/>
<path d="M38.6666 27.3333C39.403 27.3333 39.9999 26.7363 39.9999 26C39.9999 25.2636 39.403 24.6666 38.6666 24.6666C37.9302 24.6666 37.3333 25.2636 37.3333 26C37.3333 26.7363 37.9302 27.3333 38.6666 27.3333Z" fill="#FD6B6B"/>
<path d="M17.3333 27.3333C18.0697 27.3333 18.6667 26.7363 18.6667 26C18.6667 25.2636 18.0697 24.6666 17.3333 24.6666C16.597 24.6666 16 25.2636 16 26C16 26.7363 16.597 27.3333 17.3333 27.3333Z" fill="#FD6B6B"/>
<path d="M22.6666 27.3333C23.403 27.3333 23.9999 26.7363 23.9999 26C23.9999 25.2636 23.403 24.6666 22.6666 24.6666C21.9302 24.6666 21.3333 25.2636 21.3333 26C21.3333 26.7363 21.9302 27.3333 22.6666 27.3333Z" fill="#FD6B6B"/>
<path d="M40.0001 18C39.5279 17.9957 39.0631 18.117 38.6532 18.3512C38.2432 18.5855 37.9028 18.9244 37.6667 19.3333H34.6667V16.3333C35.1751 16.0398 35.5724 15.5867 35.7971 15.0444C36.0217 14.5021 36.0612 13.9007 35.9092 13.3337C35.7573 12.7667 35.4225 12.2657 34.9568 11.9083C34.4911 11.5509 33.9204 11.3572 33.3334 11.3572C32.7464 11.3572 32.1758 11.5509 31.7101 11.9083C31.2443 12.2657 30.9095 12.7667 30.7576 13.3337C30.6057 13.9007 30.6451 14.5021 30.8697 15.0444C31.0944 15.5867 31.4917 16.0398 32.0001 16.3333V22H37.6667C37.9003 22.4045 38.236 22.7405 38.6403 22.9745C39.0445 23.2085 39.5031 23.3322 39.9702 23.3332C40.4373 23.3342 40.8964 23.2126 41.3017 22.9804C41.707 22.7482 42.0442 22.4136 42.2795 22.0102C42.5148 21.6067 42.6401 21.1486 42.6427 20.6815C42.6453 20.2144 42.5252 19.7549 42.2944 19.3488C42.0636 18.9427 41.7302 18.6044 41.3275 18.3677C40.9249 18.131 40.4671 18.0042 40.0001 18ZM33.3334 15.3333C33.0697 15.3333 32.8119 15.2551 32.5927 15.1086C32.3734 14.9621 32.2025 14.7539 32.1016 14.5102C32.0007 14.2666 31.9743 13.9985 32.0257 13.7399C32.0771 13.4812 32.2041 13.2436 32.3906 13.0572C32.5771 12.8707 32.8147 12.7437 33.0733 12.6923C33.3319 12.6408 33.6 12.6672 33.8437 12.7681C34.0873 12.8691 34.2955 13.0399 34.442 13.2592C34.5886 13.4785 34.6667 13.7363 34.6667 14C34.6667 14.3536 34.5263 14.6927 34.2762 14.9428C34.0262 15.1928 33.687 15.3333 33.3334 15.3333ZM40.0001 22C39.7364 22 39.4786 21.9218 39.2593 21.7753C39.0401 21.6288 38.8692 21.4205 38.7682 21.1769C38.6673 20.9333 38.6409 20.6652 38.6924 20.4065C38.7438 20.1479 38.8708 19.9103 39.0573 19.7238C39.2437 19.5374 39.4813 19.4104 39.74 19.3589C39.9986 19.3075 40.2667 19.3339 40.5103 19.4348C40.754 19.5357 40.9622 19.7066 41.1087 19.9259C41.2552 20.1451 41.3334 20.4029 41.3334 20.6666C41.3334 21.0203 41.1929 21.3594 40.9429 21.6094C40.6928 21.8595 40.3537 22 40.0001 22Z" fill="#FD6B6B"/>
<path d="M13.3334 20.6666C13.3238 21.2615 13.5134 21.8425 13.872 22.3171C14.2307 22.7918 14.7377 23.1329 15.3126 23.2862C15.8874 23.4395 16.497 23.3962 17.0444 23.1631C17.5918 22.93 18.0455 22.5206 18.3334 22H24V16.3333C24.5084 16.0398 24.9057 15.5867 25.1304 15.0444C25.355 14.5021 25.3944 13.9007 25.2425 13.3337C25.0906 12.7667 24.7558 12.2657 24.2901 11.9083C23.8243 11.5509 23.2537 11.3572 22.6667 11.3572C22.0797 11.3572 21.509 11.5509 21.0433 11.9083C20.5776 12.2657 20.2428 12.7667 20.0909 13.3337C19.939 13.9007 19.9784 14.5021 20.203 15.0444C20.4277 15.5867 20.825 16.0398 21.3334 16.3333V19.3333H18.3334C18.0455 18.8127 17.5918 18.4032 17.0444 18.1702C16.497 17.9371 15.8874 17.8938 15.3126 18.047C14.7377 18.2003 14.2307 18.5415 13.872 19.0161C13.5134 19.4908 13.3238 20.0718 13.3334 20.6666ZM21.3334 14C21.3334 13.7363 21.4116 13.4785 21.5581 13.2592C21.7046 13.0399 21.9128 12.8691 22.1564 12.7681C22.4001 12.6672 22.6682 12.6408 22.9268 12.6923C23.1854 12.7437 23.423 12.8707 23.6095 13.0572C23.796 13.2436 23.923 13.4812 23.9744 13.7399C24.0258 13.9985 23.9994 14.2666 23.8985 14.5102C23.7976 14.7539 23.6267 14.9621 23.4074 15.1086C23.1882 15.2551 22.9304 15.3333 22.6667 15.3333C22.3131 15.3333 21.9739 15.1928 21.7239 14.9428C21.4738 14.6927 21.3334 14.3536 21.3334 14ZM14.6667 20.6666C14.6667 20.4029 14.7449 20.1451 14.8914 19.9259C15.0379 19.7066 15.2461 19.5357 15.4898 19.4348C15.7334 19.3339 16.0015 19.3075 16.2601 19.3589C16.5188 19.4104 16.7564 19.5374 16.9428 19.7238C17.1293 19.9103 17.2563 20.1479 17.3077 20.4065C17.3592 20.6652 17.3328 20.9332 17.2319 21.1769C17.1309 21.4205 16.96 21.6288 16.7408 21.7753C16.5215 21.9218 16.2637 22 16 22C15.6464 22 15.3073 21.8595 15.0572 21.6094C14.8072 21.3594 14.6667 21.0203 14.6667 20.6666Z" fill="#FD6B6B"/>
<path d="M40.0001 28.6666C39.5279 28.6624 39.0631 28.7836 38.6532 29.0179C38.2432 29.2521 37.9028 29.591 37.6667 29.9999H32.0001V35.6666C31.4917 35.9601 31.0944 36.4132 30.8697 36.9555C30.6451 37.4979 30.6057 38.0992 30.7576 38.6662C30.9095 39.2332 31.2443 39.7343 31.7101 40.0916C32.1758 40.449 32.7464 40.6427 33.3334 40.6427C33.9204 40.6427 34.4911 40.449 34.9568 40.0916C35.4225 39.7343 35.7573 39.2332 35.9092 38.6662C36.0612 38.0992 36.0217 37.4979 35.7971 36.9555C35.5724 36.4132 35.1751 35.9601 34.6667 35.6666V32.6666H37.6667C37.9003 33.0711 38.236 33.4071 38.6403 33.6411C39.0445 33.8751 39.5031 33.9988 39.9702 33.9998C40.4373 34.0009 40.8964 33.8792 41.3017 33.647C41.707 33.4148 42.0442 33.0803 42.2795 32.6768C42.5148 32.2734 42.6401 31.8152 42.6427 31.3481C42.6453 30.8811 42.5252 30.4215 42.2944 30.0154C42.0636 29.6094 41.7302 29.271 41.3275 29.0343C40.9249 28.7976 40.4671 28.6708 40.0001 28.6666ZM33.3334 39.3333C33.0697 39.3333 32.8119 39.2551 32.5927 39.1086C32.3734 38.9621 32.2025 38.7538 32.1016 38.5102C32.0007 38.2666 31.9743 37.9985 32.0257 37.7398C32.0771 37.4812 32.2041 37.2436 32.3906 37.0571C32.5771 36.8707 32.8147 36.7437 33.0733 36.6922C33.3319 36.6408 33.6 36.6672 33.8437 36.7681C34.0873 36.869 34.2955 37.0399 34.442 37.2592C34.5886 37.4784 34.6667 37.7362 34.6667 37.9999C34.6667 38.3536 34.5263 38.6927 34.2762 38.9428C34.0262 39.1928 33.687 39.3333 33.3334 39.3333ZM40.0001 32.6666C39.7364 32.6666 39.4786 32.5884 39.2593 32.4419C39.0401 32.2954 38.8692 32.0872 38.7682 31.8435C38.6673 31.5999 38.6409 31.3318 38.6924 31.0732C38.7438 30.8145 38.8708 30.5769 39.0573 30.3905C39.2437 30.204 39.4813 30.077 39.74 30.0256C39.9986 29.9741 40.2667 30.0005 40.5103 30.1014C40.754 30.2024 40.9622 30.3733 41.1087 30.5925C41.2552 30.8118 41.3334 31.0696 41.3334 31.3333C41.3334 31.6869 41.1929 32.026 40.9429 32.2761C40.6928 32.5261 40.3537 32.6666 40.0001 32.6666Z" fill="#FD6B6B"/>
<path d="M23.9999 35.6666V30H18.3332C18.0397 29.4916 17.5867 29.0943 17.0443 28.8696C16.502 28.645 15.9007 28.6056 15.3337 28.7575C14.7666 28.9094 14.2656 29.2442 13.9082 29.7099C13.5509 30.1756 13.3572 30.7463 13.3572 31.3333C13.3572 31.9203 13.5509 32.4909 13.9082 32.9567C14.2656 33.4224 14.7666 33.7572 15.3337 33.9091C15.9007 34.061 16.502 34.0216 17.0443 33.797C17.5867 33.5723 18.0397 33.175 18.3332 32.6666H21.3332V35.6666C20.8249 35.9601 20.4275 36.4132 20.2029 36.9555C19.9783 37.4979 19.9388 38.0992 20.0908 38.6662C20.2427 39.2332 20.5775 39.7343 21.0432 40.0916C21.5089 40.449 22.0796 40.6427 22.6666 40.6427C23.2536 40.6427 23.8242 40.449 24.2899 40.0916C24.7557 39.7343 25.0904 39.2332 25.2424 38.6662C25.3943 38.0992 25.3549 37.4979 25.1303 36.9555C24.9056 36.4132 24.5083 35.9601 23.9999 35.6666ZM15.9999 32.6666C15.7362 32.6666 15.4784 32.5884 15.2592 32.4419C15.0399 32.2954 14.869 32.0872 14.7681 31.8435C14.6672 31.5999 14.6408 31.3318 14.6922 31.0732C14.7436 30.8145 14.8706 30.577 15.0571 30.3905C15.2436 30.204 15.4812 30.077 15.7398 30.0256C15.9984 29.9741 16.2665 30.0005 16.5102 30.1015C16.7538 30.2024 16.962 30.3733 17.1085 30.5925C17.255 30.8118 17.3332 31.0696 17.3332 31.3333C17.3332 31.6869 17.1928 32.0261 16.9427 32.2761C16.6927 32.5262 16.3535 32.6666 15.9999 32.6666ZM22.6666 39.3333C22.4029 39.3333 22.1451 39.2551 21.9258 39.1086C21.7066 38.9621 21.5357 38.7538 21.4347 38.5102C21.3338 38.2666 21.3074 37.9985 21.3589 37.7398C21.4103 37.4812 21.5373 37.2436 21.7238 37.0571C21.9102 36.8707 22.1478 36.7437 22.4065 36.6922C22.6651 36.6408 22.9332 36.6672 23.1768 36.7681C23.4205 36.869 23.6287 37.0399 23.7752 37.2592C23.9217 37.4785 23.9999 37.7362 23.9999 38C23.9999 38.3536 23.8594 38.6927 23.6094 38.9428C23.3593 39.1928 23.0202 39.3333 22.6666 39.3333Z" fill="#FD6B6B"/>
</g>
</g>
<defs>
<filter id="filter0_d_1_20697" x="0" y="-1" width="56" height="56" filterUnits="userSpaceOnUse" color-interpolation-filters="sRGB">
<feFlood flood-opacity="0" result="BackgroundImageFix"/>
<feColorMatrix in="SourceAlpha" type="matrix" values="0 0 0 0 0 0 0 0 0 0 0 0 0 0 0 0 0 0 127 0" result="hardAlpha"/>
<feOffset dy="1"/>
<feGaussianBlur stdDeviation="1"/>
<feComposite in2="hardAlpha" operator="out"/>
<feColorMatrix type="matrix" values="0 0 0 0 0 0 0 0 0 0 0 0 0 0 0 0 0 0 0.05 0"/>
<feBlend mode="normal" in2="BackgroundImageFix" result="effect1_dropShadow_1_20697"/>
<feBlend mode="normal" in="SourceGraphic" in2="effect1_dropShadow_1_20697" result="shape"/>
</filter>
<clipPath id="clip0_1_20697">
<rect width="32" height="32" fill="white" transform="translate(12 10)"/>
</clipPath>
</defs>
</svg>
