<svg width="56" height="55" viewBox="0 0 56 55" fill="none" xmlns="http://www.w3.org/2000/svg">
<g filter="url(#filter0_d_1_20718)">
<rect x="2.5" y="0.5" width="51" height="51" rx="7.5" stroke="#DED7FE"/>
<path d="M40.5693 38.012C40.7905 38.012 40.9998 37.9123 41.1392 37.7403C41.2785 37.5685 41.3328 37.343 41.2871 37.1266L40.8251 34.94C41.0882 34.6854 41.2536 34.33 41.2536 33.9349C41.2536 33.5189 41.0684 33.1499 40.7808 32.8935V25.3004L38.9286 26.4465V32.8935C38.641 33.1499 38.4557 33.5189 38.4557 33.9349C38.4557 34.3301 38.6211 34.6855 38.8843 34.94L38.4222 37.1266C38.3765 37.343 38.4309 37.5685 38.5701 37.7403C38.7095 37.9122 38.9188 38.012 39.14 38.012H40.5693ZM41.1971 20.8694L29.1476 13.4105C28.7947 13.1931 28.3969 13.084 27.9991 13.084C27.6013 13.084 27.2032 13.193 26.8524 13.4105L14.8028 20.8694C14.4811 21.0685 14.2856 21.4202 14.2856 21.7986C14.2856 22.1771 14.4811 22.5289 14.8028 22.7283L26.8524 30.1873C27.2031 30.4049 27.6012 30.5138 27.999 30.5138C28.3968 30.5138 28.7947 30.4048 29.1475 30.1873L41.1971 22.7283C41.5188 22.529 41.7142 22.1771 41.7142 21.7986C41.7142 21.4202 41.5188 21.0684 41.1971 20.8694ZM27.999 32.3659C27.2485 32.3659 26.5159 32.1574 25.8773 31.7622L18.8488 27.4109V34.9034C18.8488 37.1209 22.9474 38.916 27.999 38.916C33.0525 38.916 37.1508 37.1209 37.1508 34.9034V27.4109L30.1225 31.7622C29.4839 32.1574 28.7496 32.3659 27.999 32.3659Z" fill="#A855F7"/>
</g>
<defs>
<filter id="filter0_d_1_20718" x="0" y="-1" width="56" height="56" filterUnits="userSpaceOnUse" color-interpolation-filters="sRGB">
<feFlood flood-opacity="0" result="BackgroundImageFix"/>
<feColorMatrix in="SourceAlpha" type="matrix" values="0 0 0 0 0 0 0 0 0 0 0 0 0 0 0 0 0 0 127 0" result="hardAlpha"/>
<feOffset dy="1"/>
<feGaussianBlur stdDeviation="1"/>
<feComposite in2="hardAlpha" operator="out"/>
<feColorMatrix type="matrix" values="0 0 0 0 0 0 0 0 0 0 0 0 0 0 0 0 0 0 0.05 0"/>
<feBlend mode="normal" in2="BackgroundImageFix" result="effect1_dropShadow_1_20718"/>
<feBlend mode="normal" in="SourceGraphic" in2="effect1_dropShadow_1_20718" result="shape"/>
</filter>
</defs>
</svg>
