<svg width="56" height="56" viewBox="0 0 56 56" fill="none" xmlns="http://www.w3.org/2000/svg">
<g filter="url(#filter0_d_213_739)">
<rect x="2.5" y="1.5" width="51" height="51" rx="7.5" stroke="#EAD6FF"/>
<path fill-rule="evenodd" clip-rule="evenodd" d="M29.5609 16.2555C30.0604 16.413 30.4001 16.8762 30.4001 17.4V23.4L35.2001 23.4C35.6476 23.4 36.0578 23.649 36.2645 24.0458C36.4711 24.4427 36.4398 24.9216 36.1832 25.2882L27.7832 37.2882C27.4828 37.7172 26.9389 37.902 26.4393 37.7445C25.9398 37.587 25.6001 37.1238 25.6001 36.6L25.6001 30.6H20.8001C20.3527 30.6 19.9424 30.3511 19.7357 29.9542C19.5291 29.5573 19.5604 29.0784 19.817 28.7119L28.217 16.7119C28.5174 16.2828 29.0613 16.0981 29.5609 16.2555Z" fill="#BF83FC"/>
</g>
<defs>
<filter id="filter0_d_213_739" x="0" y="0" width="56" height="56" filterUnits="userSpaceOnUse" color-interpolation-filters="sRGB">
<feFlood flood-opacity="0" result="BackgroundImageFix"/>
<feColorMatrix in="SourceAlpha" type="matrix" values="0 0 0 0 0 0 0 0 0 0 0 0 0 0 0 0 0 0 127 0" result="hardAlpha"/>
<feOffset dy="1"/>
<feGaussianBlur stdDeviation="1"/>
<feComposite in2="hardAlpha" operator="out"/>
<feColorMatrix type="matrix" values="0 0 0 0 0 0 0 0 0 0 0 0 0 0 0 0 0 0 0.05 0"/>
<feBlend mode="normal" in2="BackgroundImageFix" result="effect1_dropShadow_213_739"/>
<feBlend mode="normal" in="SourceGraphic" in2="effect1_dropShadow_213_739" result="shape"/>
</filter>
</defs>
</svg>
