<svg width="56" height="55" viewBox="0 0 56 55" fill="none" xmlns="http://www.w3.org/2000/svg">
<g filter="url(#filter0_d_1_20724)">
<rect x="2.5" y="0.5" width="51" height="51" rx="7.5" stroke="#FDDF49"/>
<path d="M34.608 26.4827C34.5598 26.3344 34.4829 26.1971 34.3816 26.0786C34.2803 25.9601 34.1567 25.8628 34.0178 25.7921C33.8789 25.7214 33.7274 25.6787 33.5719 25.6666C33.4165 25.6544 33.2603 25.6731 33.112 25.7213L31.9147 26.1093C31.6507 25.2933 31.368 24.4253 31.1014 23.6093L32.2987 23.2213C32.5984 23.1241 32.8472 22.9118 32.9904 22.6311C33.1335 22.3504 33.1593 22.0244 33.062 21.7247C32.9648 21.425 32.7525 21.1762 32.4718 21.033C32.1911 20.8899 31.8651 20.8641 31.5654 20.9613L30.368 21.3507L29.9787 20.1547C29.9306 20.0064 29.8537 19.8692 29.7525 19.7506C29.6513 19.6321 29.5277 19.5347 29.3889 19.464C29.25 19.3932 29.0986 19.3505 28.9432 19.3383C28.7879 19.326 28.6316 19.3445 28.4834 19.3927C28.184 19.4899 27.9356 19.7021 27.7927 19.9825C27.7219 20.1214 27.6792 20.2728 27.667 20.4282C27.6547 20.5835 27.6732 20.7398 27.7214 20.888L28.1107 22.0853L25.6107 22.8987L25.2214 21.7013C25.1241 21.4018 24.9119 21.1532 24.6313 21.0102C24.4924 20.9393 24.3409 20.8966 24.1855 20.8843C24.03 20.872 23.8737 20.8905 23.7254 20.9387C23.5771 20.9868 23.4397 21.0637 23.3211 21.1649C23.2025 21.2662 23.105 21.3898 23.0342 21.5287C22.8912 21.8093 22.8655 22.1351 22.9627 22.4347L23.352 23.632L22.1174 24.0333C21.8339 24.1356 21.6 24.3419 21.4631 24.6103C21.3262 24.8787 21.2965 25.1892 21.38 25.4787C21.5614 26.108 22.2307 26.492 22.8507 26.292L24.0854 25.8893L24.8987 28.3893L23.6627 28.792C23.3798 28.8945 23.1463 29.1006 23.0094 29.3687C22.8726 29.6367 22.8425 29.9467 22.9254 30.236C23.108 30.8667 23.7774 31.252 24.396 31.0493C24.4014 31.0493 24.8867 30.8907 25.632 30.6493L26.0334 31.8827C26.1359 32.1659 26.3422 32.3996 26.6106 32.5365C26.8789 32.6734 27.1892 32.7032 27.4787 32.62C28.108 32.4387 28.4934 31.7693 28.292 31.1493C28.2907 31.1453 28.132 30.66 27.892 29.9147C28.708 29.6493 29.576 29.368 30.3907 29.1013L30.792 30.3373C30.8946 30.6206 31.1009 30.8543 31.3692 30.9912C31.6376 31.1281 31.9479 31.1579 32.2374 31.0747C32.868 30.892 33.252 30.2227 33.0507 29.604L32.6494 28.3693L33.8454 27.98C33.9938 27.9318 34.1312 27.8548 34.2499 27.7534C34.3686 27.6521 34.4661 27.5284 34.5369 27.3893C34.6077 27.2503 34.6505 27.0986 34.6627 26.9431C34.6749 26.7875 34.6563 26.6311 34.608 26.4827ZM27.1574 27.656L26.344 25.156C27.1614 24.892 28.0294 24.6093 28.844 24.344L29.6574 26.844L27.1574 27.6573V27.656Z" fill="#E7B008"/>
<path d="M20.0001 15.3334C19.2928 15.3334 18.6146 15.6143 18.1145 16.1144C17.6144 16.6145 17.3334 17.2928 17.3334 18V34C17.3334 34.7073 17.6144 35.3855 18.1145 35.8856C18.6146 36.3857 19.2928 36.6667 20.0001 36.6667H36.0001C36.7073 36.6667 37.3856 36.3857 37.8857 35.8856C38.3858 35.3855 38.6667 34.7073 38.6667 34V18C38.6667 17.2928 38.3858 16.6145 37.8857 16.1144C37.3856 15.6143 36.7073 15.3334 36.0001 15.3334H20.0001ZM20.0001 12.6667H36.0001C37.4146 12.6667 38.7711 13.2286 39.7713 14.2288C40.7715 15.229 41.3334 16.5855 41.3334 18V34C41.3334 35.4145 40.7715 36.7711 39.7713 37.7713C38.7711 38.7714 37.4146 39.3334 36.0001 39.3334H20.0001C18.5856 39.3334 17.229 38.7714 16.2288 37.7713C15.2287 36.7711 14.6667 35.4145 14.6667 34V18C14.6667 16.5855 15.2287 15.229 16.2288 14.2288C17.229 13.2286 18.5856 12.6667 20.0001 12.6667Z" fill="#E7B008"/>
</g>
<defs>
<filter id="filter0_d_1_20724" x="0" y="-1" width="56" height="56" filterUnits="userSpaceOnUse" color-interpolation-filters="sRGB">
<feFlood flood-opacity="0" result="BackgroundImageFix"/>
<feColorMatrix in="SourceAlpha" type="matrix" values="0 0 0 0 0 0 0 0 0 0 0 0 0 0 0 0 0 0 127 0" result="hardAlpha"/>
<feOffset dy="1"/>
<feGaussianBlur stdDeviation="1"/>
<feComposite in2="hardAlpha" operator="out"/>
<feColorMatrix type="matrix" values="0 0 0 0 0 0 0 0 0 0 0 0 0 0 0 0 0 0 0.05 0"/>
<feBlend mode="normal" in2="BackgroundImageFix" result="effect1_dropShadow_1_20724"/>
<feBlend mode="normal" in="SourceGraphic" in2="effect1_dropShadow_1_20724" result="shape"/>
</filter>
</defs>
</svg>
