<svg width="56" height="55" viewBox="0 0 56 55" fill="none" xmlns="http://www.w3.org/2000/svg">
<g filter="url(#filter0_d_1_20676)">
<rect x="2.5" y="0.5" width="51" height="51" rx="7.5" stroke="#EAD6FF"/>
<path d="M38.676 34.066C38.476 33.842 38.384 33.428 38.282 32.986C38.182 32.546 38.068 32.072 37.706 31.766V31.764C37.574 31.6495 37.4231 31.5589 37.26 31.496C37.764 30.006 37.566 28.522 37.06 27.182C36.436 25.536 35.35 24.102 34.52 23.122C33.592 21.95 32.684 20.838 32.7 19.196C32.728 16.688 32.976 12.038 28.564 12.032C28.384 12.032 28.198 12.04 28.004 12.056C23.072 12.452 24.38 17.662 24.306 19.406C24.216 20.682 23.958 21.686 23.08 22.934C22.05 24.16 20.6 26.142 19.912 28.208C19.588 29.182 19.432 30.176 19.576 31.116C19.53 31.156 19.488 31.198 19.448 31.242C19.146 31.564 18.922 31.956 18.672 32.22C18.44 32.452 18.108 32.54 17.744 32.67C17.378 32.802 16.978 32.994 16.736 33.46V33.462C16.6287 33.6715 16.5757 33.9046 16.582 34.14C16.582 34.356 16.614 34.574 16.646 34.784C16.714 35.224 16.782 35.638 16.692 35.918C16.404 36.708 16.366 37.252 16.57 37.648C16.774 38.046 17.19 38.22 17.664 38.318C18.61 38.518 19.892 38.468 20.902 39.002C21.982 39.568 23.08 39.768 23.954 39.57C24.2596 39.51 24.5468 39.3787 24.7921 39.1869C25.0374 38.9951 25.2341 38.7481 25.366 38.466C26.05 38.462 26.8 38.174 28.002 38.106C28.818 38.042 29.838 38.396 31.008 38.332C31.0384 38.459 31.084 38.5819 31.144 38.698L31.146 38.7C31.6 39.61 32.446 40.024 33.346 39.954C34.246 39.882 35.202 39.352 35.976 38.43C36.716 37.534 37.94 37.164 38.752 36.674C39.158 36.428 39.488 36.122 39.512 35.676C39.538 35.232 39.276 34.734 38.676 34.066Z" fill="#202020"/>
<path d="M39.142 35.656C39.128 35.93 38.928 36.136 38.562 36.356C37.826 36.8 36.524 37.184 35.694 38.192C34.97 39.052 34.09 39.522 33.314 39.584C32.54 39.644 31.872 39.324 31.476 38.532V38.528C31.23 38.062 31.332 37.328 31.538 36.554C31.744 35.78 32.04 34.984 32.08 34.338C32.12 33.508 32.168 32.784 32.308 32.226C32.448 31.666 32.666 31.29 33.054 31.076C33.0718 31.0663 33.0898 31.057 33.108 31.048C33.152 31.766 33.508 32.498 34.136 32.656C34.822 32.836 35.812 32.248 36.23 31.766L36.474 31.758C36.842 31.748 37.148 31.77 37.464 32.044C37.706 32.248 37.822 32.638 37.922 33.07C38.022 33.504 38.102 33.976 38.4 34.312C38.974 34.952 39.16 35.38 39.142 35.656ZM25.184 37.686V37.692C25.116 38.562 24.624 39.036 23.872 39.208C23.118 39.38 22.096 39.208 21.076 38.676C19.946 38.076 18.602 38.136 17.742 37.956C17.31 37.866 17.028 37.73 16.9 37.48C16.772 37.228 16.768 36.79 17.042 36.04V36.038L17.044 36.034C17.18 35.616 17.08 35.158 17.014 34.728C16.948 34.3 16.916 33.908 17.062 33.636L17.064 33.634C17.252 33.272 17.528 33.142 17.87 33.02C18.21 32.896 18.616 32.8 18.936 32.48L18.938 32.478C19.234 32.164 19.46 31.772 19.72 31.494C19.94 31.26 20.16 31.104 20.49 31.102H20.5C20.5623 31.1025 20.6245 31.1079 20.686 31.118C21.126 31.184 21.508 31.492 21.878 31.992L22.944 33.934V33.936C23.228 34.528 23.826 35.18 24.334 35.844C24.842 36.51 25.234 37.176 25.184 37.686Z" fill="#F8BF11"/>
<path d="M30.5 19.576C30.414 19.408 30.24 19.248 29.94 19.126C29.32 18.86 29.052 18.842 28.706 18.618C28.146 18.256 27.68 18.13 27.294 18.13C27.1087 18.1309 26.9248 18.1627 26.75 18.224C26.278 18.384 25.966 18.724 25.77 18.908C25.73 18.946 25.682 18.978 25.562 19.068C25.442 19.154 25.262 19.288 25.002 19.484C24.768 19.656 24.694 19.884 24.774 20.148C24.854 20.412 25.108 20.718 25.574 20.982C25.864 21.152 26.064 21.382 26.292 21.564C26.4065 21.6592 26.5337 21.738 26.67 21.798C26.814 21.86 26.982 21.902 27.19 21.914C27.686 21.944 28.05 21.794 28.37 21.612C28.69 21.428 28.962 21.204 29.274 21.102C29.914 20.902 30.372 20.5 30.516 20.116C30.5523 20.0301 30.5697 19.9375 30.5669 19.8443C30.5642 19.7511 30.5413 19.6596 30.5 19.576Z" fill="#D6A312"/>
<path d="M28.876 20.52C28.366 20.786 27.772 21.108 27.138 21.108C26.506 21.108 26.006 20.816 25.648 20.53C25.468 20.39 25.322 20.246 25.212 20.144C25.02 19.994 25.044 19.782 25.122 19.788C25.254 19.804 25.274 19.978 25.356 20.056C25.468 20.16 25.608 20.296 25.778 20.43C26.118 20.7 26.572 20.962 27.138 20.962C27.706 20.962 28.366 20.63 28.77 20.402C29 20.274 29.29 20.044 29.528 19.87C29.708 19.736 29.702 19.576 29.852 19.594C30.002 19.612 29.892 19.772 29.682 19.954C29.472 20.138 29.142 20.382 28.876 20.52Z" fill="#202020"/>
<path d="M36.6741 31.388C36.6047 31.3859 36.5354 31.3859 36.4661 31.388H36.4461C36.6221 30.834 36.2341 30.428 35.2041 29.962C34.1361 29.492 33.2841 29.538 33.1401 30.492C33.1301 30.542 33.1221 30.592 33.1181 30.644C33.0352 30.6734 32.955 30.7095 32.8781 30.752C32.3741 31.026 32.1001 31.524 31.9481 32.136C31.7961 32.746 31.7521 33.484 31.7101 34.316C31.6841 34.732 31.5121 35.296 31.3381 35.896C29.5881 37.144 27.1581 37.684 25.0941 36.276C24.9541 36.056 24.7941 35.836 24.6281 35.62C24.5227 35.4823 24.416 35.3457 24.3081 35.21C24.4918 35.2149 24.6745 35.1809 24.8441 35.11C24.9288 35.0745 25.0054 35.0221 25.0694 34.9561C25.1333 34.8901 25.1832 34.8118 25.2161 34.726C25.3421 34.386 25.2161 33.91 24.8121 33.366C24.4101 32.82 23.7281 32.206 22.7261 31.59C21.9901 31.13 21.5781 30.57 21.3861 29.962C21.1921 29.352 21.2181 28.692 21.3661 28.042C21.6521 26.792 22.3861 25.576 22.8521 24.814C22.9781 24.722 22.8981 24.986 22.3801 25.948C21.9161 26.828 21.0461 28.858 22.2361 30.444C22.2681 29.316 22.5361 28.164 22.9901 27.09C23.6481 25.596 25.0261 23.008 25.1341 20.944C25.1921 20.984 25.3841 21.116 25.4721 21.164C25.7241 21.314 25.9141 21.532 26.1601 21.73C26.4809 22.0008 26.8905 22.1432 27.3101 22.13C27.7901 22.13 28.1641 21.972 28.4741 21.794C28.8141 21.602 29.0821 21.386 29.3401 21.304C29.8801 21.134 30.3121 20.834 30.5561 20.484C30.9761 22.144 31.9561 24.538 32.5841 25.706C32.9181 26.326 33.5841 27.644 33.8701 29.23C34.0521 29.226 34.2521 29.25 34.4681 29.306C35.2181 27.36 33.8301 25.262 33.1961 24.678C32.9401 24.43 32.9261 24.318 33.0561 24.324C33.7421 24.932 34.6461 26.158 34.9761 27.54C35.1261 28.17 35.1561 28.832 34.9961 29.486C35.0761 29.52 35.1561 29.554 35.2361 29.594C36.4421 30.18 36.8881 30.69 36.6741 31.388Z" fill="white"/>
<path d="M28.08 26.124C26.968 26.128 25.882 26.626 24.964 27.556C24.044 28.484 23.336 29.8 22.928 31.332L23.05 31.408V31.416C23.99 32.012 24.66 32.612 25.074 33.172C25.512 33.764 25.706 34.34 25.52 34.84C25.4218 35.0926 25.2277 35.2961 24.98 35.406L24.898 35.436C25.046 35.63 25.19 35.83 25.324 36.036C27.212 37.292 29.408 36.828 31.058 35.692C31.218 35.136 31.364 34.62 31.384 34.296C31.426 33.466 31.468 32.712 31.632 32.056C31.796 31.396 32.116 30.796 32.72 30.466C32.754 30.446 32.788 30.436 32.822 30.42C32.8326 30.3565 32.8473 30.2937 32.866 30.232C32.382 28.988 31.684 27.952 30.846 27.232C30.006 26.512 29.052 26.13 28.082 26.124H28.08ZM32.82 30.434L32.816 30.444V30.44L32.818 30.432L32.82 30.434Z" fill="#E6E6E6"/>
<path d="M30.556 17.666C30.5647 18.1393 30.4131 18.6016 30.126 18.978C29.9824 18.9138 29.837 18.8538 29.69 18.798L29.436 18.708C29.494 18.638 29.606 18.558 29.65 18.454C29.7134 18.2996 29.7473 18.1348 29.75 17.968L29.752 17.948C29.757 17.7877 29.7333 17.6279 29.682 17.476C29.6418 17.3373 29.5675 17.2108 29.466 17.108C29.4258 17.0653 29.3775 17.0309 29.324 17.0069C29.2704 16.9829 29.2127 16.9697 29.154 16.968H29.14C29.028 16.9696 28.9205 17.0123 28.838 17.088C28.7288 17.1825 28.645 17.3028 28.594 17.438C28.531 17.5924 28.4971 17.7572 28.494 17.924V17.944C28.4909 18.0377 28.4969 18.1315 28.512 18.224C28.2851 18.1193 28.0478 18.0388 27.804 17.984C27.7924 17.8958 27.7857 17.807 27.784 17.718V17.692C27.7756 17.3846 27.8357 17.0792 27.96 16.798C28.0659 16.5391 28.2384 16.3127 28.46 16.142C28.656 15.9837 28.9001 15.8969 29.152 15.896H29.164C29.414 15.896 29.628 15.968 29.848 16.128C30.0745 16.2938 30.2521 16.5177 30.362 16.776C30.488 17.052 30.55 17.322 30.556 17.642L30.558 17.666H30.556ZM26.776 17.994C26.5802 18.05 26.3936 18.1342 26.222 18.244C26.2354 18.1445 26.2368 18.0438 26.226 17.944V17.928C26.2138 17.7959 26.1814 17.6664 26.13 17.544C26.0889 17.4363 26.0231 17.3398 25.938 17.262C25.9068 17.2313 25.8694 17.2075 25.8285 17.192C25.7875 17.1765 25.7438 17.1697 25.7 17.172C25.616 17.18 25.546 17.22 25.48 17.302C25.4098 17.3937 25.3618 17.5005 25.34 17.614C25.3088 17.7483 25.3001 17.8868 25.314 18.024V18.04C25.3255 18.1729 25.3579 18.3032 25.41 18.426C25.4579 18.549 25.538 18.6567 25.642 18.738L25.438 18.898L25.282 19.01C25.1435 18.8737 25.0345 18.7103 24.962 18.53C24.856 18.29 24.798 18.05 24.782 17.768V17.766C24.7637 17.5027 24.7942 17.2382 24.872 16.986C24.9317 16.766 25.0467 16.565 25.206 16.402C25.2729 16.3282 25.3543 16.2691 25.4452 16.2285C25.5361 16.1879 25.6345 16.1666 25.734 16.166C25.902 16.166 26.05 16.222 26.204 16.346C26.38 16.4905 26.5168 16.6769 26.602 16.888C26.708 17.128 26.762 17.368 26.78 17.652C26.786 17.772 26.786 17.884 26.776 17.994Z" fill="white"/>
<path d="M27.612 18.67C27.632 18.738 27.742 18.728 27.806 18.76C27.86 18.788 27.906 18.85 27.966 18.852C28.026 18.854 28.118 18.832 28.126 18.772C28.136 18.696 28.022 18.646 27.95 18.618C27.856 18.58 27.736 18.562 27.648 18.612C27.628 18.622 27.606 18.646 27.612 18.67ZM26.968 18.67C26.948 18.738 26.838 18.728 26.776 18.76C26.72 18.788 26.676 18.85 26.614 18.852C26.554 18.854 26.462 18.832 26.454 18.772C26.444 18.696 26.558 18.646 26.63 18.618C26.724 18.58 26.846 18.562 26.934 18.612C26.954 18.622 26.974 18.646 26.968 18.67Z" fill="#202020"/>
</g>
<defs>
<filter id="filter0_d_1_20676" x="0" y="-1" width="56" height="56" filterUnits="userSpaceOnUse" color-interpolation-filters="sRGB">
<feFlood flood-opacity="0" result="BackgroundImageFix"/>
<feColorMatrix in="SourceAlpha" type="matrix" values="0 0 0 0 0 0 0 0 0 0 0 0 0 0 0 0 0 0 127 0" result="hardAlpha"/>
<feOffset dy="1"/>
<feGaussianBlur stdDeviation="1"/>
<feComposite in2="hardAlpha" operator="out"/>
<feColorMatrix type="matrix" values="0 0 0 0 0 0 0 0 0 0 0 0 0 0 0 0 0 0 0.05 0"/>
<feBlend mode="normal" in2="BackgroundImageFix" result="effect1_dropShadow_1_20676"/>
<feBlend mode="normal" in="SourceGraphic" in2="effect1_dropShadow_1_20676" result="shape"/>
</filter>
</defs>
</svg>
