<svg width="56" height="55" viewBox="0 0 56 55" fill="none" xmlns="http://www.w3.org/2000/svg">
<g filter="url(#filter0_d_1_20688)">
<rect x="2.5" y="0.5" width="51" height="51" rx="7.5" stroke="#FED6A9"/>
<path d="M16 26H40M28 20.6667V26M20.6667 26V31.3333M35.3333 26V31.3333M25.4667 20.6667H30.5333C31.2801 20.6667 31.6535 20.6667 31.9387 20.5213C32.1896 20.3935 32.3935 20.1895 32.5213 19.9387C32.6667 19.6534 32.6667 19.2801 32.6667 18.5333V16.1333C32.6667 15.3866 32.6667 15.0132 32.5213 14.728C32.3935 14.4771 32.1896 14.2732 31.9387 14.1453C31.6535 14 31.2801 14 30.5333 14H25.4667C24.7199 14 24.3466 14 24.0613 14.1453C23.8105 14.2732 23.6065 14.4771 23.4787 14.728C23.3333 15.0132 23.3333 15.3866 23.3333 16.1333V18.5333C23.3333 19.2801 23.3333 19.6534 23.4787 19.9387C23.6065 20.1895 23.8105 20.3935 24.0613 20.5213C24.3466 20.6667 24.7199 20.6667 25.4667 20.6667ZM32.8 38H37.8667C38.6135 38 38.9868 38 39.272 37.8547C39.5229 37.7268 39.7268 37.5229 39.8547 37.272C40 36.9868 40 36.6135 40 35.8667V33.4667C40 32.7199 40 32.3465 39.8547 32.0613C39.7268 31.8104 39.5229 31.6065 39.272 31.4787C38.9868 31.3333 38.6135 31.3333 37.8667 31.3333H32.8C32.0532 31.3333 31.6799 31.3333 31.3947 31.4787C31.1437 31.6065 30.9399 31.8104 30.812 32.0613C30.6667 32.3465 30.6667 32.7199 30.6667 33.4667V35.8667C30.6667 36.6135 30.6667 36.9868 30.812 37.272C30.9399 37.5229 31.1437 37.7268 31.3947 37.8547C31.6799 38 32.0532 38 32.8 38ZM18.1333 38H23.2C23.9467 38 24.3201 38 24.6053 37.8547C24.8562 37.7268 25.0602 37.5229 25.188 37.272C25.3333 36.9868 25.3333 36.6135 25.3333 35.8667V33.4667C25.3333 32.7199 25.3333 32.3465 25.188 32.0613C25.0602 31.8104 24.8562 31.6065 24.6053 31.4787C24.3201 31.3333 23.9467 31.3333 23.2 31.3333H18.1333C17.3866 31.3333 17.0132 31.3333 16.728 31.4787C16.4771 31.6065 16.2732 31.8104 16.1453 32.0613C16 32.3465 16 32.7199 16 33.4667V35.8667C16 36.6135 16 36.9868 16.1453 37.272C16.2732 37.5229 16.4771 37.7268 16.728 37.8547C17.0132 38 17.3866 38 18.1333 38Z" stroke="#E7B008" stroke-width="2" stroke-linecap="round" stroke-linejoin="round"/>
</g>
<defs>
<filter id="filter0_d_1_20688" x="0" y="-1" width="56" height="56" filterUnits="userSpaceOnUse" color-interpolation-filters="sRGB">
<feFlood flood-opacity="0" result="BackgroundImageFix"/>
<feColorMatrix in="SourceAlpha" type="matrix" values="0 0 0 0 0 0 0 0 0 0 0 0 0 0 0 0 0 0 127 0" result="hardAlpha"/>
<feOffset dy="1"/>
<feGaussianBlur stdDeviation="1"/>
<feComposite in2="hardAlpha" operator="out"/>
<feColorMatrix type="matrix" values="0 0 0 0 0 0 0 0 0 0 0 0 0 0 0 0 0 0 0.05 0"/>
<feBlend mode="normal" in2="BackgroundImageFix" result="effect1_dropShadow_1_20688"/>
<feBlend mode="normal" in="SourceGraphic" in2="effect1_dropShadow_1_20688" result="shape"/>
</filter>
</defs>
</svg>
