<svg width="56" height="56" viewBox="0 0 56 56" fill="none" xmlns="http://www.w3.org/2000/svg">
<g filter="url(#filter0_d_213_749)">
<rect x="2.5" y="1.5" width="51" height="51" rx="7.5" stroke="#FED6A9"/>
<path fill-rule="evenodd" clip-rule="evenodd" d="M21.9999 17.4C22.6626 17.4 23.1999 17.9373 23.1999 18.6V19.8H24.3999C25.0626 19.8 25.5999 20.3373 25.5999 21C25.5999 21.6627 25.0626 22.2 24.3999 22.2H23.1999V23.4C23.1999 24.0627 22.6626 24.6 21.9999 24.6C21.3372 24.6 20.7999 24.0627 20.7999 23.4V22.2H19.5999C18.9372 22.2 18.3999 21.6627 18.3999 21C18.3999 20.3373 18.9372 19.8 19.5999 19.8H20.7999V18.6C20.7999 17.9373 21.3372 17.4 21.9999 17.4ZM21.9999 29.4C22.6626 29.4 23.1999 29.9373 23.1999 30.6V31.8H24.3999C25.0626 31.8 25.5999 32.3373 25.5999 33C25.5999 33.6627 25.0626 34.2 24.3999 34.2H23.1999V35.4C23.1999 36.0627 22.6626 36.6 21.9999 36.6C21.3372 36.6 20.7999 36.0627 20.7999 35.4V34.2H19.5999C18.9372 34.2 18.3999 33.6627 18.3999 33C18.3999 32.3373 18.9372 31.8 19.5999 31.8H20.7999V30.6C20.7999 29.9373 21.3372 29.4 21.9999 29.4Z" fill="#E7B008"/>
<path fill-rule="evenodd" clip-rule="evenodd" d="M30.3998 17.4C30.9443 17.4 31.4206 17.7666 31.5599 18.2929L32.9749 23.6387L36.9995 25.9606C37.371 26.1749 37.5998 26.5711 37.5998 27C37.5998 27.4289 37.371 27.8251 36.9995 28.0394L32.9749 30.3613L31.5599 35.7071C31.4206 36.2334 30.9443 36.6 30.3998 36.6C29.8554 36.6 29.3791 36.2334 29.2398 35.7071L27.8247 30.3613L23.8002 28.0394C23.4288 27.8251 23.1999 27.4289 23.1999 27C23.1999 26.5711 23.4288 26.1749 23.8002 25.9606L27.8247 23.6387L29.2398 18.2929C29.3791 17.7666 29.8554 17.4 30.3998 17.4Z" fill="#E7B008"/>
</g>
<defs>
<filter id="filter0_d_213_749" x="0" y="0" width="56" height="56" filterUnits="userSpaceOnUse" color-interpolation-filters="sRGB">
<feFlood flood-opacity="0" result="BackgroundImageFix"/>
<feColorMatrix in="SourceAlpha" type="matrix" values="0 0 0 0 0 0 0 0 0 0 0 0 0 0 0 0 0 0 127 0" result="hardAlpha"/>
<feOffset dy="1"/>
<feGaussianBlur stdDeviation="1"/>
<feComposite in2="hardAlpha" operator="out"/>
<feColorMatrix type="matrix" values="0 0 0 0 0 0 0 0 0 0 0 0 0 0 0 0 0 0 0.05 0"/>
<feBlend mode="normal" in2="BackgroundImageFix" result="effect1_dropShadow_213_749"/>
<feBlend mode="normal" in="SourceGraphic" in2="effect1_dropShadow_213_749" result="shape"/>
</filter>
</defs>
</svg>
