<svg width="56" height="55" viewBox="0 0 56 55" fill="none" xmlns="http://www.w3.org/2000/svg">
<g filter="url(#filter0_d_1_20693)">
<rect x="2.5" y="0.5" width="51" height="51" rx="7.5" stroke="#91C3FD"/>
<path fill-rule="evenodd" clip-rule="evenodd" d="M22.0001 24.8V22.4C22.0001 19.0863 24.6864 16.4 28.0001 16.4C31.3138 16.4 34.0001 19.0863 34.0001 22.4V24.8C35.3256 24.8 36.4001 25.8745 36.4001 27.2V33.2C36.4001 34.5255 35.3256 35.6 34.0001 35.6H22.0001C20.6746 35.6 19.6001 34.5255 19.6001 33.2V27.2C19.6001 25.8745 20.6746 24.8 22.0001 24.8ZM31.6001 22.4V24.8H24.4001V22.4C24.4001 20.4118 26.0119 18.8 28.0001 18.8C29.9883 18.8 31.6001 20.4118 31.6001 22.4Z" fill="#2463EB"/>
</g>
<defs>
<filter id="filter0_d_1_20693" x="0" y="-1" width="56" height="56" filterUnits="userSpaceOnUse" color-interpolation-filters="sRGB">
<feFlood flood-opacity="0" result="BackgroundImageFix"/>
<feColorMatrix in="SourceAlpha" type="matrix" values="0 0 0 0 0 0 0 0 0 0 0 0 0 0 0 0 0 0 127 0" result="hardAlpha"/>
<feOffset dy="1"/>
<feGaussianBlur stdDeviation="1"/>
<feComposite in2="hardAlpha" operator="out"/>
<feColorMatrix type="matrix" values="0 0 0 0 0 0 0 0 0 0 0 0 0 0 0 0 0 0 0.05 0"/>
<feBlend mode="normal" in2="BackgroundImageFix" result="effect1_dropShadow_1_20693"/>
<feBlend mode="normal" in="SourceGraphic" in2="effect1_dropShadow_1_20693" result="shape"/>
</filter>
</defs>
</svg>
