<svg width="24" height="24" viewBox="0 0 24 24" fill="none" xmlns="http://www.w3.org/2000/svg">
<g clip-path="url(#clip0_121_688)">
<path d="M0 11.5C0 6.0792 0 3.368 1.684 1.684C3.368 0 6.08 0 11.5 0H12.5C17.9208 0 20.632 0 22.316 1.684C24 3.368 24 6.08 24 11.5V12.5C24 17.9208 24 20.632 22.316 22.316C20.632 24 17.92 24 12.5 24H11.5C6.0792 24 3.368 24 1.684 22.316C0 20.632 0 17.92 0 12.5V11.5Z" fill="#2787F5"/>
<path fill-rule="evenodd" clip-rule="evenodd" d="M6.49999 7.5H4.75039C4.25039 7.5 4.15039 7.7352 4.15039 7.9952C4.15039 8.4584 4.74319 10.7576 6.91279 13.7976C8.35839 15.8744 10.396 17 12.2496 17C13.3624 17 13.5 16.7496 13.5 16.32V14.7504C13.5 14.2504 13.6056 14.1504 13.9576 14.1504C14.2176 14.1504 14.6616 14.28 15.7008 15.2808C16.8872 16.468 17.0824 17 17.7496 17H19.5C20 17 20.2504 16.7496 20.1056 16.256C19.948 15.7648 19.3816 15.0512 18.6296 14.2056C18.2216 13.724 17.6104 13.2048 17.4248 12.9448C17.1648 12.6112 17.2392 12.4632 17.4248 12.1664C17.4248 12.1664 19.5568 9.1632 19.7792 8.1432C19.8912 7.7728 19.7792 7.5 19.2496 7.5H17.5C17.0552 7.5 16.8496 7.7352 16.7384 7.9952C16.7384 7.9952 15.8488 10.164 14.588 11.5728C14.18 11.9808 13.9944 12.1112 13.772 12.1112C13.6608 12.1112 13.5 11.9808 13.5 11.6104V8.1432C13.5 7.6984 13.3712 7.5 13 7.5H10.2496C9.97199 7.5 9.80479 7.7064 9.80479 7.9024C9.80479 8.324 10.4352 8.4216 10.5 9.608V12.1848C10.5 12.7504 10.3984 12.8528 10.1752 12.8528C9.58239 12.8528 8.13919 10.6736 7.28319 8.1808C7.11519 7.696 6.94719 7.5 6.49999 7.5Z" fill="white"/>
</g>
<defs>
<clipPath id="clip0_121_688">
<rect width="24" height="24" fill="white"/>
</clipPath>
</defs>
</svg>
